HIERARCHY
ROOT root
{
	OFFSET	0	13.1	24.9
	CHANNELS 6  Xposition Yposition Zposition Xrotation Yrotation Zrotation
	JOINT spine_1
	{
		OFFSET	0	9.99999	0
		CHANNELS 3  Xrotation Yrotation Zrotation
		JOINT spine_2
		{
			OFFSET	0	112	-10
			CHANNELS 3  Xrotation Yrotation Zrotation
			JOINT spine_3
			{
				OFFSET	0	206.5	19.3
				CHANNELS 3  Xrotation Yrotation Zrotation
				JOINT spine_4
				{
					OFFSET	0	110.4	14.6
					CHANNELS 3  Xrotation Yrotation Zrotation
					JOINT neck_1
					{
						OFFSET	0	71.8	-50.3
						CHANNELS 3  Xrotation Yrotation Zrotation
						JOINT neck_2
						{
							OFFSET	0	86.2	-25.8
							CHANNELS 3  Xrotation Yrotation Zrotation
							JOINT head_ee
							{
								OFFSET	0	179.8	-8.7
								CHANNELS 3  Xrotation Yrotation Zrotation
								End Site
								{
									OFFSET	1	0	0
								}
							}
						}
					}
					JOINT left_clavicle
					{
						OFFSET	-43.2	22.4	-70.8
						CHANNELS 3  Xrotation Yrotation Zrotation
						JOINT left_shoulder
						{
							OFFSET	-93.9	-5.79999	48.7
							CHANNELS 3  Xrotation Yrotation Zrotation
							JOINT left_elbow
							{
								OFFSET	-291.4	-30.8	15.2
								CHANNELS 3  Xrotation Yrotation Zrotation
								JOINT left_lowarm_twist
								{
									OFFSET	-110.7	-3.89999	13.6
									CHANNELS 3  Xrotation Yrotation Zrotation
									JOINT left_hand
									{
										OFFSET	-110.7	-3.89999	13.6
										CHANNELS 3  Xrotation Yrotation Zrotation
										JOINT left_ee
										{
											OFFSET	-80.8	-5.10001	12.1
											CHANNELS 3  Xrotation Yrotation Zrotation
											End Site
											{
												OFFSET	1	0	0
											}
										}
									}
								}
							}
						}
					}
					JOINT right_clavicle
					{
						OFFSET	43.2	22.4	-70.8
						CHANNELS 3  Xrotation Yrotation Zrotation
						JOINT right_shoulder
						{
							OFFSET	93.9	-5.79999	48.7
							CHANNELS 3  Xrotation Yrotation Zrotation
							JOINT right_elbow
							{
								OFFSET	291.4	-30.8	15.2
								CHANNELS 3  Xrotation Yrotation Zrotation
								JOINT right_lowarm_twist
								{
									OFFSET	110.7	-3.89999	13.6
									CHANNELS 3  Xrotation Yrotation Zrotation
									JOINT right_hand
									{
										OFFSET	110.7	-3.89999	13.6
										CHANNELS 3  Xrotation Yrotation Zrotation
										JOINT right_ee
										{
											OFFSET	80.8	-5.10001	12.1
											CHANNELS 3  Xrotation Yrotation Zrotation
											End Site
											{
												OFFSET	1	0	0
											}
										}
									}
								}
							}
						}
					}
				}
			}
		}
	}
	JOINT left_hip
	{
		OFFSET	-82.8	-127.5	0.300001
		CHANNELS 3  Xrotation Yrotation Zrotation
		JOINT left_knee
		{
			OFFSET	-28.2	-396.7	2.2
			CHANNELS 3  Xrotation Yrotation Zrotation
			JOINT left_ankle
			{
				OFFSET	-11.7	-411.3	35.4
				CHANNELS 3  Xrotation Yrotation Zrotation
				JOINT left_toes
				{
					OFFSET	0	-60	-88.6
					CHANNELS 3  Xrotation Yrotation Zrotation
					JOINT left_foot_ee
					{
						OFFSET	-22.5	-16.5	-42.2
						CHANNELS 3  Xrotation Yrotation Zrotation
						End Site
						{
							OFFSET	1	0	0
						}
					}
				}
			}
		}
	}
	JOINT right_hip
	{
		OFFSET	82.8	-127.5	0.300001
		CHANNELS 3  Xrotation Yrotation Zrotation
		JOINT right_knee
		{
			OFFSET	28.2	-396.7	2.2
			CHANNELS 3  Xrotation Yrotation Zrotation
			JOINT right_ankle
			{
				OFFSET	11.7	-411.3	35.4
				CHANNELS 3  Xrotation Yrotation Zrotation
				JOINT right_toes
				{
					OFFSET	0	-60	-88.6
					CHANNELS 3  Xrotation Yrotation Zrotation
					JOINT right_foot_ee
					{
						OFFSET	22.5	-16.5	-42.2
						CHANNELS 3  Xrotation Yrotation Zrotation
						End Site
						{
							OFFSET	1	0	0
						}
					}
				}
			}
		}
	}
}
MOTION
Frames: 12
Frame Time: 0.02
3196.74 750.447 -794.594 -4.51899 56.6671 -1.13763 -0.576462 0.144329 0.852433 -0.576062 0.0897964 0.859889 -0.574431 -0.101555 0.85858 -0.575458 0.0353113 0.863843 -14.7023 12.4958 7.53367 -14.8545 19.4076 11.223 -0.0 0.0 -0.0 12.6402 -23.5924 25.1054 -21.9248 -32.0932 41.8397 4.45058 -65.5808 2.86799 -1.84317 -0.0685782 0.225368 0.610703 7.38313 7.05936 -0.0 0.0 -0.0 11.0945 -6.0091 -21.4129 -61.4152 61.2807 -4.09805 5.37623 69.3924 -3.72357 -14.7431 0.746048 -1.726 -5.06134 -4.11378 33.6408 0.0 0.0 0.0 -11.1912 9.0168 9.43242 -11.1381 0.295987 1.68102 29.3949 14.0654 -3.8591 -14.7686 0.0 0.0 -0.0 0.0 -0.0 37.4788 -39.9525 9.37487 3.87638 0.178929 0.567741 -3.27579 -1.19098 -0.486854 13.5509 -0.0 -0.0 0.0 0.0 0.0 
3180.36 751.233 -811.392 -5.65511 56.7598 0.787747 -0.657206 0.134235 0.689261 -0.656947 0.0901044 0.696405 -0.655654 -0.066281 0.699075 -0.656333 0.0449539 0.700769 -11.2829 13.7572 6.56521 -11.3891 21.7722 10.0735 -0.0 0.0 -0.0 12.5603 -23.5817 24.9222 -22.7139 -31.8801 41.8791 4.75983 -66.9946 3.15116 -0.784722 -0.0283092 0.0962148 1.0737 4.53952 9.00348 -0.0 0.0 -0.0 10.5753 -6.08346 -20.3738 -62.5004 59.8039 -2.55922 5.9989 71.3702 -4.31018 -16.8084 0.885263 -1.95074 -4.90645 -3.88431 32.5549 0.0 0.0 0.0 -11.7171 9.15765 8.15477 -9.99802 0.280782 1.50674 27.7187 14.4399 -3.67546 -14.8732 0.0 0.0 -0.0 0.0 -0.0 34.7328 -40.9203 7.58465 0.938073 0.0397636 0.138458 -2.92748 2.77764 -0.439737 14.0587 -0.0 -0.0 0.0 0.0 0.0 
3158.8 751.748 -826.007 -5.32682 56.3954 0.995634 -0.743508 0.14817 0.557274 -0.743342 0.11241 0.565572 -0.742088 -0.0164364 0.576401 -0.742543 0.0748001 0.571763 -8.64506 14.4743 5.87707 -8.65951 23.0612 9.0988 -0.0 0.0 -0.0 12.8258 -24.3112 25.4616 -24.2015 -32.037 41.4685 4.76406 -67.0128 3.15505 -0.579342 -0.0207728 0.0710701 1.10167 4.47779 9.16586 -0.0 0.0 -0.0 11.0132 -4.60509 -21.3933 -62.9223 59.5728 -2.8745 5.22221 68.8394 -3.57967 -17.1703 0.910493 -1.98961 -5.04523 -4.02104 33.5718 0.0 0.0 0.0 -12.5144 9.40939 7.6195 -10.8293 0.29221 1.63378 27.3475 14.6244 -3.63499 -14.9244 0.0 0.0 -0.0 0.0 -0.0 32.9071 -41.5392 6.35906 -0.82859 -0.0332299 -0.122814 -2.74599 4.23525 -0.414551 13.6177 -0.0 -0.0 0.0 0.0 0.0 
3137.67 747.161 -838.605 -6.73166 55.5859 2.70291 -0.809977 0.0136108 0.459974 -0.80986 -0.0156858 0.459908 -0.809914 -0.118297 0.44471 -0.810187 -0.04658 0.457811 -6.6855 13.6803 5.81534 -6.59928 21.2029 8.52059 -0.0 0.0 -0.0 12.2546 -21.7231 24.3863 -23.5561 -32.2538 42.0327 5.24443 -68.9209 3.6004 -0.93864 -0.0340165 0.115041 0.917389 6.24854 8.6335 -0.0 0.0 -0.0 10.5969 -6.8165 -20.3427 -62.5241 60.9691 -3.51097 6.13052 71.742 -4.43505 -17.7094 0.948533 -2.04721 -5.39309 -4.32019 36.2043 0.0 0.0 0.0 -13.297 9.55397 6.95555 -10.8377 0.292316 1.63506 27.5007 14.5281 -3.65155 -14.3728 0.0 0.0 -0.0 0.0 -0.0 33.5721 -41.9754 5.71697 -3.83575 -0.138815 -0.572193 -3.71512 4.51344 -0.562663 13.0541 -0.0 -0.0 0.0 0.0 0.0 
3109.84 747.136 -856.057 -7.43034 55.8001 3.5154 -0.844612 0.00738762 0.185997 -0.844593 -0.00446282 0.18609 -0.844596 -0.0461383 0.180335 -0.84464 -0.0170787 0.185359 -4.87555 14.9431 4.86315 -4.71045 23.8664 7.49508 -0.0 0.0 -0.0 11.7539 -21.8039 23.2309 -24.5588 -32.1962 44.4368 5.89439 -71.0643 4.21124 -0.296257 -0.0105326 0.0363688 1.09165 4.01441 8.91697 -0.0 0.0 -0.0 10.4387 -5.57846 -20.1517 -63.4727 60.5399 -3.60033 5.84439 70.9145 -4.16397 -17.7818 0.953678 -2.05491 -5.28019 -4.36654 35.2448 0.0 0.0 0.0 -14.0666 9.87591 6.58718 -11.3913 0.298892 1.71976 26.1857 15.4721 -3.50928 -14.5799 0.0 0.0 -0.0 0.0 -0.0 31.9617 -41.668 5.22026 -4.51737 -0.159456 -0.674764 -4.14786 7.97576 -0.638901 13.138 -0.0 -0.0 0.0 0.0 0.0 
3079.8 745.515 -869.879 -5.70776 55.4657 2.83551 -0.921539 0.0789877 -0.0511689 -0.921541 0.0820836 -0.0460391 -0.921611 0.0903614 -0.0263086 -0.921601 0.0850724 -0.0402493 -3.26184 14.7266 3.36408 -3.02172 24.267 5.64047 -0.0 0.0 -0.0 11.8202 -19.671 23.545 -24.2702 -31.6402 47.9074 5.9036 -71.0917 4.21995 -0.651904 -0.0234252 0.0799569 1.14105 4.61856 9.48385 -0.0 0.0 -0.0 9.44356 -6.97016 -18.0921 -63.251 60.0697 -4.88398 6.57965 72.9086 -4.86299 -18.9107 1.03523 -2.17427 -5.3143 -1.35471 37.5126 0.0 0.0 0.0 -14.9047 9.65357 5.87063 -13.1254 0.31419 1.98537 26.017 16.173 -3.4966 -13.8344 0.0 0.0 -0.0 0.0 -0.0 29.3852 -37.9014 4.02519 -7.38181 -0.232802 -1.10819 -5.66591 12.5826 -0.899831 14.1915 -0.0 -0.0 0.0 0.0 0.0 
3056.1 750.641 -889.615 -4.91655 55.4379 2.91124 -1.0132 0.0178503 -0.22403 -1.01317 0.0320697 -0.22244 -1.01328 0.0818199 -0.209317 -1.01334 0.0477354 -0.219612 -0.444779 14.6787 4.89425 -0.095333 22.3351 6.80127 -0.0 0.0 -0.0 11.0383 -17.5255 21.8977 -25.7092 -31.6364 48.8444 5.919 -71.1372 4.23453 0.566112 0.0196024 -0.0696435 1.41762 2.54487 10.5273 -0.0 0.0 -0.0 9.20961 -7.20754 -17.6261 -63.8136 60.5164 -7.00232 6.05169 71.5211 -4.36024 -19.372 1.06924 -2.22257 -5.70354 -3.49022 39.4075 0.0 0.0 0.0 -13.2548 9.76729 4.43914 -16.2565 0.321428 2.46566 27.0419 19.3588 -3.65564 -13.9403 0.0 0.0 -0.0 0.0 -0.0 27.5519 -39.7005 4.1535 -9.33296 -0.270311 -1.40523 -5.42451 18.5016 -0.901948 13.6704 -0.0 -0.0 0.0 0.0 0.0 
3029.76 753.224 -907.234 -3.61267 55.8227 2.24324 -1.1093 0.0330242 -0.395645 -1.10921 0.058133 -0.392742 -1.10957 0.146555 -0.368982 -1.10975 0.086442 -0.387497 -1.38673 14.3326 4.51968 -1.08574 22.2321 6.49692 -0.0 0.0 -0.0 10.472 -15.3412 20.7307 -25.7809 -31.3514 51.6409 6.53623 -72.8022 4.82151 1.11499 0.0379492 -0.137346 1.58789 1.45953 11.2513 -0.0 0.0 -0.0 9.89153 -9.81542 -18.6753 -62.404 60.1426 -10.104 4.88114 67.5075 -3.26303 -18.5223 1.00691 -2.13339 -5.41376 -5.76881 35.3827 0.0 0.0 0.0 -12.362 8.79948 2.92863 -19.7141 0.298931 2.99562 26.9571 18.5052 -3.63382 -13.7905 0.0 0.0 -0.0 0.0 -0.0 25.4188 -39.5319 5.02278 -11.2464 -0.29725 -1.69758 -5.67048 22.2387 -0.978046 14.6188 -0.0 -0.0 0.0 0.0 0.0 
2992.8 749.936 -930.217 -0.193996 54.5413 -0.0638992 -1.28865 0.0439309 -0.656013 -1.28842 0.0855847 -0.651888 -1.28925 0.234574 -0.614214 -1.28975 0.134629 -0.643551 0.0332808 14.1433 3.41917 0.394545 22.4655 5.1023 -0.0 0.0 -0.0 10.2209 -9.96753 20.3179 -27.5078 -30.9685 52.4974 6.12128 -71.7164 4.42628 2.32182 0.0760004 -0.286793 1.7243 0.00708568 11.6012 -0.0 0.0 -0.0 10.4801 -11.165 -19.6142 -62.709 59.7844 -10.4461 4.15258 64.0551 -2.59829 -17.6417 0.943724 -2.03999 -5.48269 -9.79728 33.0872 0.0 0.0 0.0 -11.18 6.19185 2.47286 -28.2292 0.107809 4.28716 27.6119 23.0316 -3.78514 -13.4306 0.0 0.0 -0.0 0.0 -0.0 19.3447 -35.0828 3.18749 -13.242 -0.314929 -2.00325 1.06846 29.1229 0.196553 16.6765 -0.0 -0.0 0.0 0.0 0.0 
2974.42 750.731 -940.911 2.43564 54.9477 -1.69989 -1.33704 -0.00845932 -0.772472 -1.33671 0.0407107 -0.771445 -1.33702 0.219298 -0.74074 -1.33777 0.0995632 -0.766075 0.0602869 13.9721 2.75236 0.429239 22.6973 4.36351 -0.0 0.0 -0.0 9.51659 -4.41404 18.785 -27.8344 -31.0608 52.6019 6.46246 -72.6185 4.75107 2.93692 0.0941804 -0.36326 2.30964 -2.76845 14.5051 -0.0 0.0 -0.0 10.6058 -9.49112 -20.0597 -57.7044 59.1646 -14.6298 3.81239 62.0816 -2.29495 -15.224 0.777733 -1.77877 -4.97608 -10.5322 28.728 0.0 0.0 0.0 -9.4882 4.76431 1.08994 -33.604 -0.110764 5.08272 26.3453 24.2307 -3.65751 -12.412 0.0 0.0 -0.0 0.0 -0.0 16.1723 -29.5732 1.95625 -14.8403 -0.321405 -2.24839 6.77521 29.5134 1.22807 15.5725 -0.0 -0.0 0.0 0.0 0.0 
2958.49 751.041 -948.02 3.33596 54.2997 -1.83384 -1.33377 0.0399498 -0.729153 -1.33348 0.0862655 -0.725133 -1.33439 0.252782 -0.685102 -1.33502 0.141413 -0.716424 -0.196325 13.7824 2.58467 0.155311 22.5455 4.20382 -0.0 0.0 -0.0 9.21365 -1.68201 18.0943 -26.9623 -29.7013 53.1029 5.82276 -70.849 4.14353 4.61673 0.139632 -0.573017 2.69871 -4.79707 16.3752 -0.0 0.0 -0.0 10.3363 -8.49879 -19.659 -54.5934 59.0771 -17.2621 3.49482 59.9735 -2.01708 -13.4587 0.663601 -1.58378 -4.5819 -11.0389 25.5296 0.0 0.0 0.0 -7.57961 0.873792 0.983352 -37.983 -0.343459 5.71384 26.0159 25.3266 -3.64024 -12.3759 0.0 0.0 -0.0 0.0 -0.0 14.1509 -24.715 0.647106 -15.2114 -0.32193 -2.30533 10.0218 29.6372 1.79522 14.0901 -0.0 -0.0 0.0 0.0 0.0 
2938.93 751.066 -961.074 2.23607 54.9109 -0.068266 -0.835124 -0.00827199 -0.926969 -0.834647 0.0507277 -0.925617 -0.835185 0.25717 -0.890623 -0.836274 0.113291 -0.920058 -0.652268 13.5373 2.1016 -0.320741 22.5847 3.73139 -0.0 0.0 -0.0 8.58014 0.679417 16.7362 -27.3967 -29.4225 53.7055 5.58798 -70.1089 3.92225 5.648 0.16448 -0.702408 3.00257 -6.15535 17.9358 -0.0 0.0 -0.0 10.7817 -8.88998 -20.4691 -51.8699 57.9649 -20.2439 3.16313 57.4417 -1.73357 -11.6921 0.555475 -1.38528 -4.35045 -12.4198 23.0188 0.0 0.0 0.0 -6.87023 0.654551 -0.574216 -38.8003 -0.39221 5.8296 21.5091 25.4999 -3.07452 -12.1122 0.0 0.0 -0.0 0.0 -0.0 12.1063 -20.775 -0.593254 -14.6218 -0.320924 -2.21486 12.7424 29.5179 2.25077 12.1725 -0.0 -0.0 0.0 0.0 0.0 
